<?xml version="1.0" standalone="no"?><!DOCTYPE svg PUBLIC "-//W3C//DTD SVG 1.1//EN" "http://www.w3.org/Graphics/SVG/1.1/DTD/svg11.dtd"><svg t="1731407159331" class="icon" viewBox="0 0 1024 1024" version="1.1" xmlns="http://www.w3.org/2000/svg" p-id="4444" xmlns:xlink="http://www.w3.org/1999/xlink" width="200" height="200"><path d="M759.619641 668.034295h31.925176v31.925175h-31.925176z" fill="#00A0E9" p-id="4445"></path><path d="M911.663289 702.353858a461.318784 461.318784 0 0 0-148.452065-133.287607 112.536243 112.536243 0 0 0-52.277475-76.620421 114.531567 114.531567 0 0 0-86.996103-15.164458 119.719408 119.719408 0 0 0-25.939205 9.976617 726.29774 726.29774 0 0 0-129.696025-35.915822l-5.586905 31.127046a689.982853 689.982853 0 0 1 104.954014 27.934528 112.536243 112.536243 0 0 0 6.385035 159.625877 98.169914 98.169914 0 0 0 17.558846 13.5682l16.361652-27.136399a79.812938 79.812938 0 1 1 112.137179-29.131723v1.995323l27.136399 16.760718a119.719408 119.719408 0 0 0 15.164458-39.90647 425.802027 425.802027 0 0 1 114.930632 102.160562c-39.906469 46.291504-124.508184 72.629774-235.847233 72.629773H456.330475a153.639906 153.639906 0 0 0 7.981294-53.474668 125.705378 125.705378 0 0 0-125.306313-124.907249v31.925175a92.183944 92.183944 0 0 1 67.441933 26.33827 93.381138 93.381138 0 0 1 28.333593 66.643804c0 56.667186-25.141076 85.399844-74.226033 85.399844H285.929852a137.677319 137.677319 0 0 1-148.053001-126.902572 94.578332 94.578332 0 0 1 0-18.356976c0-116.925955 75.822292-186.363211 207.912705-191.151988v-31.925175c-149.64926 5.187841-239.438815 88.592362-239.438816 223.077163a187.161341 187.161341 0 0 0 44.695246 124.508184 89.789556 89.789556 0 0 0 52.277475 163.616524h395.074045a58.263445 58.263445 0 0 1 58.66251 57.86438h31.925175a90.587685 90.587685 0 0 0-90.587685-90.18862H202.924396a57.86438 57.86438 0 0 1-57.86438-45.094311 58.66251 58.66251 0 0 1 29.530787-64.249415 185.964147 185.964147 0 0 0 110.141855 30.727981h74.226033a99.766173 99.766173 0 0 0 79.812938-33.920499h201.926734c130.494154 0 225.870616-33.521434 268.171473-94.179267l5.985971-8.380358z" fill="#00A0E9" p-id="4446"></path><path d="M501.82385 317.25643l12.371006-13.967264 29.530787 29.530787 22.746687-22.347623-29.530787-29.530787 17.957911-17.558846 29.530788 29.530787 22.746687-22.347623-29.530787-29.530787 17.957911-17.558846 29.929852 29.929852 22.746687-22.746688-29.929852-29.929852 30.328917-30.328916v-39.90647l4.788776-4.788776 101.362432 103.75682-5.98597 7.582229h-39.906469L562.082619 383.102104a35.915822 35.915822 0 0 1-28.333593 10.375682 47.887763 47.887763 0 0 1-30.328917-13.967264 39.906469 39.906469 0 0 1-12.371005-29.530787 35.117693 35.117693 0 0 1 10.774746-29.530787m-176.386594 211.105222a16.760717 16.760717 0 0 0-3.591582 17.558846 15.962588 15.962588 0 0 0 14.765394 9.577553 14.366329 14.366329 0 0 0 11.173811-4.788776l143.663289-144.461419a79.812938 79.812938 0 0 0 39.90647 13.169135h4.788776a65.845674 65.845674 0 0 0 47.887763-19.55417l138.076383-134.085737h39.90647l33.920498-39.906469-143.264224-147.254871-37.113016 35.915822v39.906469L478.678098 295.307872a70.235386 70.235386 0 0 0-21.150428 51.87841 75.024162 75.024162 0 0 0 11.572876 39.906469zM732.084178 124.508184l22.746687 22.746687 41.103663-41.502728 61.056898 61.056898 22.347623-22.347622-60.657833-61.056898-22.746688-22.746688L735.276695 0l-22.746687 22.347623 61.056898 61.056898-41.502728 41.103663zM153.440374 157.630553h31.526111v-31.925175h32.32424v-31.925175h-32.32424v-31.925176h-31.526111v31.925176h-31.925175v31.925175h31.925175v31.925175zM200.929072 332.819953h31.925176v31.925176h31.925175v-31.925176h31.925176v-31.925175h-31.925176v-31.526111h-31.925175v31.526111h-31.925176v31.925175zM807.507405 428.994544v-32.32424h31.925175v-31.925175h-31.925175v-31.526111h-31.925176v31.526111h-31.925175v31.925175h31.925175v32.32424h31.925176z" fill="#00A0E9" p-id="4447"></path></svg>